<svg xmlns="http://www.w3.org/2000/svg" xmlns:xlink="http://www.w3.org/1999/xlink" aria-hidden="true" role="img" class="iconify iconify--logos" width="31.88" height="32" preserveAspectRatio="xMidYMid meet" viewBox="0 0 256 257"><defs><linearGradient id="IconifyId1813088fe1fbc01fb466" x1="-.828%" x2="57.636%" y1="7.652%" y2="78.411%"><stop offset="0%" stop-color="#41d1ff"></stop><stop offset="100%" stop-color="#bd34fe"></stop></linearGradient></defs><path fill="url(#IconifyId1813088fe1fbc01fb466)" d="M255.153 37.938L134.897 252.976c-2.483 4.44-8.862 4.466-11.382.048L.875 37.958c-2.746-4.814 1.371-10.646 6.827-9.67l120.385-21.517a6.537 6.537 0 0 0 2.322-.006l121.506 21.517c5.438.996 9.574 4.856 6.827 9.67l-134.76 215.5c-2.52 4.416-8.9 4.39-11.383-.048Z"></path><path fill="#bd34fe" d="M255.153 37.938L134.897 252.976c-2.483 4.44-8.862 4.466-11.382.048L.875 37.958c-2.746-4.814 1.371-10.646 6.827-9.67l120.385-21.517a6.537 6.537 0 0 0 2.322-.006l121.506 21.517c5.438.996 9.574 4.856 6.827 9.67l-134.76 215.5c-2.52 4.416-8.9 4.39-11.383-.048Z"></path></svg>